<mxfile host="app.diagrams.net" modified="2023-09-27T16:32:35.926Z" agent="Mozilla/5.0 (Macintosh; Intel Mac OS X 10_15_7) AppleWebKit/605.1.15 (KHTML, like Gecko) Version/17.0 Safari/605.1.15" etag="ksn5KP-0IU4Q-PoJmX2Y" version="21.8.2" type="device">
  <diagram name="Страница — 1" id="FgEMby7dzjqjjeOA83lz">
    <mxGraphModel dx="2095" dy="1343" grid="1" gridSize="10" guides="1" tooltips="1" connect="1" arrows="1" fold="1" page="1" pageScale="1" pageWidth="1169" pageHeight="827" math="0" shadow="0">
      <root>
        <mxCell id="0" />
        <mxCell id="1" parent="0" />
        <mxCell id="O0R2ehQTQU66PhJIzlQV-20" style="edgeStyle=orthogonalEdgeStyle;rounded=0;orthogonalLoop=1;jettySize=auto;html=1;" edge="1" parent="1" source="O0R2ehQTQU66PhJIzlQV-1">
          <mxGeometry relative="1" as="geometry">
            <mxPoint x="420" y="440" as="targetPoint" />
            <Array as="points">
              <mxPoint x="320" y="186" />
              <mxPoint x="320" y="440" />
            </Array>
          </mxGeometry>
        </mxCell>
        <mxCell id="O0R2ehQTQU66PhJIzlQV-1" value="&lt;br style=&quot;font-size: 15px;&quot;&gt;&lt;br style=&quot;font-size: 15px;&quot;&gt;Продажи" style="strokeWidth=2;html=1;shape=mxgraph.flowchart.database;whiteSpace=wrap;fillColor=#a20025;fontColor=#ffffff;strokeColor=#6F0000;fontSize=15;" vertex="1" parent="1">
          <mxGeometry x="50" y="126" width="100" height="120" as="geometry" />
        </mxCell>
        <mxCell id="O0R2ehQTQU66PhJIzlQV-5" value="Business Intellegence" style="image;html=1;image=img/lib/clip_art/finance/Pie_Chart_128x128.png;fontSize=17;" vertex="1" parent="1">
          <mxGeometry x="876" y="552" width="100" height="100" as="geometry" />
        </mxCell>
        <mxCell id="O0R2ehQTQU66PhJIzlQV-6" value="Source" style="text;strokeColor=none;align=center;fillColor=none;html=1;verticalAlign=middle;whiteSpace=wrap;rounded=0;fontSize=40;" vertex="1" parent="1">
          <mxGeometry x="30" y="18" width="140" height="70" as="geometry" />
        </mxCell>
        <mxCell id="O0R2ehQTQU66PhJIzlQV-17" style="edgeStyle=orthogonalEdgeStyle;rounded=0;orthogonalLoop=1;jettySize=auto;html=1;" edge="1" parent="1" source="O0R2ehQTQU66PhJIzlQV-7">
          <mxGeometry relative="1" as="geometry">
            <mxPoint x="420" y="440" as="targetPoint" />
            <Array as="points">
              <mxPoint x="320" y="356" />
              <mxPoint x="320" y="440" />
            </Array>
          </mxGeometry>
        </mxCell>
        <mxCell id="O0R2ehQTQU66PhJIzlQV-7" value="&lt;br style=&quot;font-size: 15px;&quot;&gt;&lt;br style=&quot;font-size: 15px;&quot;&gt;Склад" style="strokeWidth=2;html=1;shape=mxgraph.flowchart.database;whiteSpace=wrap;fillColor=#0050ef;fontColor=#ffffff;strokeColor=#001DBC;fontSize=15;" vertex="1" parent="1">
          <mxGeometry x="50" y="296" width="100" height="120" as="geometry" />
        </mxCell>
        <mxCell id="O0R2ehQTQU66PhJIzlQV-18" style="edgeStyle=orthogonalEdgeStyle;rounded=0;orthogonalLoop=1;jettySize=auto;html=1;" edge="1" parent="1" source="O0R2ehQTQU66PhJIzlQV-8">
          <mxGeometry relative="1" as="geometry">
            <mxPoint x="420" y="440" as="targetPoint" />
            <Array as="points">
              <mxPoint x="320" y="526" />
              <mxPoint x="320" y="440" />
            </Array>
          </mxGeometry>
        </mxCell>
        <mxCell id="O0R2ehQTQU66PhJIzlQV-8" value="&lt;br style=&quot;font-size: 15px;&quot;&gt;&lt;br style=&quot;font-size: 15px;&quot;&gt;CRM" style="strokeWidth=2;html=1;shape=mxgraph.flowchart.database;whiteSpace=wrap;fillColor=#6d8764;fontColor=#ffffff;strokeColor=#3A5431;fontSize=15;" vertex="1" parent="1">
          <mxGeometry x="50" y="466" width="100" height="120" as="geometry" />
        </mxCell>
        <mxCell id="O0R2ehQTQU66PhJIzlQV-9" value="" style="edgeStyle=none;orthogonalLoop=1;jettySize=auto;html=1;rounded=0;strokeColor=default;" edge="1" parent="1">
          <mxGeometry width="80" relative="1" as="geometry">
            <mxPoint x="260" y="790" as="sourcePoint" />
            <mxPoint x="260" y="80" as="targetPoint" />
            <Array as="points" />
          </mxGeometry>
        </mxCell>
        <mxCell id="O0R2ehQTQU66PhJIzlQV-19" style="edgeStyle=orthogonalEdgeStyle;rounded=0;orthogonalLoop=1;jettySize=auto;html=1;" edge="1" parent="1" source="O0R2ehQTQU66PhJIzlQV-10">
          <mxGeometry relative="1" as="geometry">
            <mxPoint x="420" y="440" as="targetPoint" />
            <Array as="points">
              <mxPoint x="320" y="686" />
              <mxPoint x="320" y="440" />
            </Array>
          </mxGeometry>
        </mxCell>
        <mxCell id="O0R2ehQTQU66PhJIzlQV-10" value="Google Analitycs" style="shape=image;html=1;verticalAlign=top;verticalLabelPosition=bottom;labelBackgroundColor=#ffffff;imageAspect=0;aspect=fixed;image=https://cdn0.iconfinder.com/data/icons/google-material-design-3-0/48/ic_settings_applications_48px-128.png;imageBackground=#e37300;fontSize=17;spacingTop=9;" vertex="1" parent="1">
          <mxGeometry x="50" y="636" width="100" height="100" as="geometry" />
        </mxCell>
        <mxCell id="O0R2ehQTQU66PhJIzlQV-11" value="&lt;br style=&quot;font-size: 17px;&quot;&gt;&lt;br style=&quot;font-size: 17px;&quot;&gt;Хранилище данных" style="strokeWidth=2;html=1;shape=mxgraph.flowchart.database;whiteSpace=wrap;fontSize=17;fillColor=#76608a;fontColor=#ffffff;strokeColor=#432D57;" vertex="1" parent="1">
          <mxGeometry x="421.5" y="272" width="230" height="296" as="geometry" />
        </mxCell>
        <mxCell id="O0R2ehQTQU66PhJIzlQV-12" value="" style="edgeStyle=none;orthogonalLoop=1;jettySize=auto;html=1;rounded=0;" edge="1" parent="1">
          <mxGeometry width="80" relative="1" as="geometry">
            <mxPoint x="810" y="798" as="sourcePoint" />
            <mxPoint x="810" y="88" as="targetPoint" />
            <Array as="points" />
          </mxGeometry>
        </mxCell>
        <mxCell id="O0R2ehQTQU66PhJIzlQV-13" value="Storage" style="text;strokeColor=none;align=center;fillColor=none;html=1;verticalAlign=middle;whiteSpace=wrap;rounded=0;fontSize=40;" vertex="1" parent="1">
          <mxGeometry x="464.5" y="18" width="140" height="70" as="geometry" />
        </mxCell>
        <mxCell id="O0R2ehQTQU66PhJIzlQV-14" value="Business" style="text;strokeColor=none;align=center;fillColor=none;html=1;verticalAlign=middle;whiteSpace=wrap;rounded=0;fontSize=40;" vertex="1" parent="1">
          <mxGeometry x="856" y="18" width="140" height="70" as="geometry" />
        </mxCell>
        <mxCell id="O0R2ehQTQU66PhJIzlQV-21" value="ETL" style="text;strokeColor=none;align=center;fillColor=none;html=1;verticalAlign=middle;whiteSpace=wrap;rounded=0;fontSize=20;" vertex="1" parent="1">
          <mxGeometry x="326" y="387" width="60" height="40" as="geometry" />
        </mxCell>
        <mxCell id="O0R2ehQTQU66PhJIzlQV-23" value="Excel" style="sketch=0;pointerEvents=1;shadow=0;dashed=0;html=1;strokeColor=none;fillColor=#505050;labelPosition=center;verticalLabelPosition=bottom;verticalAlign=top;outlineConnect=0;align=center;shape=mxgraph.office.services.excel_services;fontSize=17;" vertex="1" parent="1">
          <mxGeometry x="876" y="209" width="100" height="80" as="geometry" />
        </mxCell>
        <mxCell id="O0R2ehQTQU66PhJIzlQV-26" style="edgeStyle=orthogonalEdgeStyle;rounded=0;orthogonalLoop=1;jettySize=auto;html=1;" edge="1" parent="1" source="O0R2ehQTQU66PhJIzlQV-24">
          <mxGeometry relative="1" as="geometry">
            <mxPoint x="650" y="440" as="targetPoint" />
          </mxGeometry>
        </mxCell>
        <mxCell id="O0R2ehQTQU66PhJIzlQV-24" value="SQL" style="sketch=0;pointerEvents=1;shadow=0;dashed=0;html=1;strokeColor=none;fillColor=#505050;labelPosition=center;verticalLabelPosition=bottom;verticalAlign=top;outlineConnect=0;align=center;shape=mxgraph.office.servers.monitoring_sql_reporting_services;fontSize=17;" vertex="1" parent="1">
          <mxGeometry x="876" y="385" width="100" height="110" as="geometry" />
        </mxCell>
        <mxCell id="O0R2ehQTQU66PhJIzlQV-27" style="edgeStyle=orthogonalEdgeStyle;rounded=0;orthogonalLoop=1;jettySize=auto;html=1;" edge="1" parent="1" source="O0R2ehQTQU66PhJIzlQV-5">
          <mxGeometry relative="1" as="geometry">
            <mxPoint x="650" y="440" as="targetPoint" />
            <Array as="points">
              <mxPoint x="750" y="602" />
              <mxPoint x="750" y="440" />
            </Array>
          </mxGeometry>
        </mxCell>
        <mxCell id="O0R2ehQTQU66PhJIzlQV-28" style="edgeStyle=orthogonalEdgeStyle;rounded=0;orthogonalLoop=1;jettySize=auto;html=1;entryX=0.998;entryY=0.567;entryDx=0;entryDy=0;entryPerimeter=0;" edge="1" parent="1" source="O0R2ehQTQU66PhJIzlQV-23" target="O0R2ehQTQU66PhJIzlQV-11">
          <mxGeometry relative="1" as="geometry">
            <mxPoint x="883" y="250" as="sourcePoint" />
            <mxPoint x="651.95" y="439.0559999999999" as="targetPoint" />
            <Array as="points">
              <mxPoint x="750" y="250" />
              <mxPoint x="750" y="440" />
            </Array>
          </mxGeometry>
        </mxCell>
        <mxCell id="O0R2ehQTQU66PhJIzlQV-29" value="Пользователь" style="shape=umlActor;verticalLabelPosition=bottom;verticalAlign=top;html=1;outlineConnect=0;fontSize=17;" vertex="1" parent="1">
          <mxGeometry x="1060" y="355" width="70" height="130" as="geometry" />
        </mxCell>
      </root>
    </mxGraphModel>
  </diagram>
</mxfile>
